# xmcd
#
# Track frame offsets: 
#        150
#        12298
#        27649
#        40756
#        52396
#        63646
#        78017
#        89725
#        102005
#        113169
#        126702
#        135039
#        146316
#        159819
#
# Disc length: 2277 seconds
#
# Revision: 0
# Processed by: cddbd v1.5.1PL0 Copyright (c) Steve Scherf et al.
# Submitted via: ExactAudioCopy v0.95a5
#
DISCID=b808e30e
DTITLE=Nicolas Jules - Le coeur sur la table
DYEAR=2005
DGENRE=Chanson
TTITLE0=La crème des filles
TTITLE1=Bréchallune
TTITLE2=Valse à rhume
TTITLE3=Ça ne marche pas
TTITLE4=Crawl
TTITLE5=Une sale odeur
TTITLE6=Ursule
TTITLE7=Bonjour le bonheur
TTITLE8=Hollywood
TTITLE9=Droit dans l'amûr
TTITLE10=Rotten song
TTITLE11=220 volts
TTITLE12=Le bal des vieux pioupious
TTITLE13=Grand fou
EXTD=
EXTT0=
EXTT1=
EXTT2=
EXTT3=
EXTT4=
EXTT5=
EXTT6=
EXTT7=
EXTT8=
EXTT9=
EXTT10=
EXTT11=
EXTT12=
EXTT13=
PLAYORDER=
